ffmpeg started on 2025-05-29 at 16:15:37
Report written to "D:\Convert\FFMetrics\reports\psnr_report-6.txt"
Log level: 32
Command line:
ffmpeg -hide_banner -nostdin -i "G:\\\xc0\xed\xe8\xec\xe5\\\xce\xed\xe3\xee\xe8\xed\xe3\xe8\\!_36_\xce\xf1\xe5\xed\xfc_2024\\JamClub\\\xd2\xfb - \xe3\xee\xf0\xed\xe8\xf7\xed\xe0\xff\\JamClub_Kimi_wa_Meido_sama_02_1080p_HEVC.mkv" -i "G:\\\xc0\xed\xe8\xec\xe5\\\xce\xed\xe3\xee\xe8\xed\xe3\xe8\\!_36_\xce\xf1\xe5\xed\xfc_2024\\JamClub\\\xd2\xfb - \xe3\xee\xf0\xed\xe8\xf7\xed\xe0\xff\\JamClub_Kimi_wa_Meido_sama_02_1080p.mp4" -lavfi "[0:v]settb=AVTB,setpts=PTS-STARTPTS,format=pix_fmts=yuv420p10,fps=24000/1001,scale=1920:1080:flags=bicubic[main];[1:v]settb=AVTB,setpts=PTS-STARTPTS,format=pix_fmts=yuv420p,fps=24000/1001,scale=1920:1080:flags=bicubic[ref];[main][ref]psnr=eof_action=endall:stats_file='D\\:/Convert/FFMetrics/logs/psnr_logfile-6.txt'" -f null -
Input #0, matroska,webm, from 'G:\Аниме\Онгоинги\!_36_Осень_2024\JamClub\Ты - горничная\JamClub_Kimi_wa_Meido_sama_02_1080p_HEVC.mkv':
  Metadata:
    COMPATIBLE_BRANDS: isomiso2avc1mp41
    MAJOR_BRAND     : isom
    MINOR_VERSION   : 512
    ENCODER         : Lavf61.7.100
  Duration: 00:23:22.31, start: -0.001000, bitrate: 1924 kb/s
  Stream #0:0: Video: hevc (Main 10), yuv420p10le(tv, bt709, progressive), 1920x1080 [SAR 1:1 DAR 16:9], 23.98 fps, 23.98 tbr, 1k tbn (default)
      Metadata:
        HANDLER_NAME    : VideoHandler
        VENDOR_ID       : [0][0][0][0]
        ENCODER         : Lavc61.19.100 libx265
        BPS             : 1727308
        DURATION        : 00:23:22.233708333
        NUMBER_OF_FRAMES: 33620
        NUMBER_OF_BYTES : 302761197
        _STATISTICS_WRITING_APP: mkvpropedit v66.0.0 ('Josie') 64-bit
        _STATISTICS_WRITING_DATE_UTC: 2025-05-29 09:35:06
        _STATISTICS_TAGS: BPS DURATION NUMBER_OF_FRAMES NUMBER_OF_BYTES
  Stream #0:1(eng): Audio: aac (LC), 48000 Hz, stereo, fltp (default)
      Metadata:
        HANDLER_NAME    : SoundHandler
        VENDOR_ID       : [0][0][0][0]
        ENCODER         : Lavc61.19.100 aac
        BPS             : 193338
        DURATION        : 00:23:22.264000000
        NUMBER_OF_FRAMES: 65732
        NUMBER_OF_BYTES : 33889011
        _STATISTICS_WRITING_APP: mkvpropedit v66.0.0 ('Josie') 64-bit
        _STATISTICS_WRITING_DATE_UTC: 2025-05-29 09:35:06
        _STATISTICS_TAGS: BPS DURATION NUMBER_OF_FRAMES NUMBER_OF_BYTES
Input #1, mov,mp4,m4a,3gp,3g2,mj2, from 'G:\Аниме\Онгоинги\!_36_Осень_2024\JamClub\Ты - горничная\JamClub_Kimi_wa_Meido_sama_02_1080p.mp4':
  Metadata:
    major_brand     : isom
    minor_version   : 512
    compatible_brands: isomiso2avc1mp41
    encoder         : Lavf60.16.100
  Duration: 00:23:22.28, start: 0.000000, bitrate: 3968 kb/s
  Stream #1:0[0x1](und): Video: h264 (High) (avc1 / 0x31637661), yuv420p(progressive), 1920x1080 [SAR 1:1 DAR 16:9], 3770 kb/s, 23.98 fps, 23.98 tbr, 90k tbn (default)
      Metadata:
        handler_name    : VideoHandler
        vendor_id       : [0][0][0][0]
  Stream #1:1[0x2](eng): Audio: aac (LC) (mp4a / 0x6134706D), 48000 Hz, stereo, fltp, 191 kb/s (default)
      Metadata:
        handler_name    : SoundHandler
        vendor_id       : [0][0][0][0]
Stream mapping:
  Stream #0:0 (hevc) -> settb:default
  Stream #1:0 (h264) -> settb:default
  psnr:default -> Stream #0:0 (wrapped_avframe)
  Stream #0:1 -> #0:1 (aac (native) -> pcm_s16le (native))
Output #0, null, to 'pipe:':
  Metadata:
    COMPATIBLE_BRANDS: isomiso2avc1mp41
    MAJOR_BRAND     : isom
    MINOR_VERSION   : 512
    encoder         : Lavf61.7.100
  Stream #0:0: Video: wrapped_avframe, yuv420p10le(tv, bt709, progressive), 1920x1080 [SAR 1:1 DAR 16:9], q=2-31, 200 kb/s, 23.98 fps, 23.98 tbn
      Metadata:
        encoder         : Lavc61.19.100 wrapped_avframe
  Stream #0:1(eng): Audio: pcm_s16le, 48000 Hz, stereo, s16, 1536 kb/s (default)
      Metadata:
        HANDLER_NAME    : SoundHandler
        VENDOR_ID       : [0][0][0][0]
        _STATISTICS_TAGS: BPS DURATION NUMBER_OF_FRAMES NUMBER_OF_BYTES
        BPS             : 193338
        DURATION        : 00:23:22.264000000
        NUMBER_OF_FRAMES: 65732
        NUMBER_OF_BYTES : 33889011
        _STATISTICS_WRITING_APP: mkvpropedit v66.0.0 ('Josie') 64-bit
        _STATISTICS_WRITING_DATE_UTC: 2025-05-29 09:35:06
        encoder         : Lavc61.19.100 pcm_s16le
frame=  107 fps=0.0 q=-0.0 size=N/A time=00:00:04.46 bitrate=N/A speed=8.75x    frame=  266 fps=261 q=-0.0 size=N/A time=00:00:11.09 bitrate=N/A speed=10.9x    frame=  464 fps=300 q=-0.0 size=N/A time=00:00:19.35 bitrate=N/A speed=12.5x    frame=  698 fps=340 q=-0.0 size=N/A time=00:00:29.11 bitrate=N/A speed=14.2x    frame=  953 fps=370 q=-0.0 size=N/A time=00:00:39.74 bitrate=N/A speed=15.4x    frame= 1200 fps=388 q=-0.0 size=N/A time=00:00:50.05 bitrate=N/A speed=16.2x    frame= 1462 fps=407 q=-0.0 size=N/A time=00:01:00.97 bitrate=N/A speed=  17x    frame= 1716 fps=416 q=-0.0 size=N/A time=00:01:11.57 bitrate=N/A speed=17.4x    frame= 1975 fps=426 q=-0.0 size=N/A time=00:01:22.37 bitrate=N/A speed=17.8x    frame= 2189 fps=425 q=-0.0 size=N/A time=00:01:31.29 bitrate=N/A speed=17.7x    frame= 2388 fps=422 q=-0.0 size=N/A time=00:01:39.59 bitrate=N/A speed=17.6x    frame= 2591 fps=419 q=-0.0 size=N/A time=00:01:48.06 bitrate=N/A speed=17.5x    frame= 2776 fps=415 q=-0.0 size=N/A time=00:01:55.78 bitrate=N/A speed=17.3x    frame= 2892 fps=401 q=-0.0 size=N/A time=00:02:00.62 bitrate=N/A speed=16.7x    frame= 2991 fps=387 q=-0.0 size=N/A time=00:02:04.74 bitrate=N/A speed=16.1x    frame= 3117 fps=378 q=-0.0 size=N/A time=00:02:10.00 bitrate=N/A speed=15.8x    frame= 3242 fps=370 q=-0.0 size=N/A time=00:02:15.21 bitrate=N/A speed=15.4x    frame= 3360 fps=362 q=-0.0 size=N/A time=00:02:20.14 bitrate=N/A speed=15.1x    frame= 3547 fps=362 q=-0.0 size=N/A time=00:02:27.93 bitrate=N/A speed=15.1x    frame= 3667 fps=356 q=-0.0 size=N/A time=00:02:32.94 bitrate=N/A speed=14.8x    frame= 3905 fps=361 q=-0.0 size=N/A time=00:02:42.87 bitrate=N/A speed=  15x    frame= 4081 fps=360 q=-0.0 size=N/A time=00:02:50.21 bitrate=N/A speed=  15x    frame= 4286 fps=362 q=-0.0 size=N/A time=00:02:58.76 bitrate=N/A speed=15.1x    frame= 4545 fps=367 q=-0.0 size=N/A time=00:03:09.56 bitrate=N/A speed=15.3x    frame= 4712 fps=366 q=-0.0 size=N/A time=00:03:16.52 bitrate=N/A speed=15.3x    frame= 4879 fps=364 q=-0.0 size=N/A time=00:03:23.49 bitrate=N/A speed=15.2x    frame= 5103 fps=367 q=-0.0 size=N/A time=00:03:32.83 bitrate=N/A speed=15.3x    frame= 5366 fps=372 q=-0.0 size=N/A time=00:03:43.80 bitrate=N/A speed=15.5x    frame= 5606 fps=375 q=-0.0 size=N/A time=00:03:53.81 bitrate=N/A speed=15.6x    frame= 5835 fps=377 q=-0.0 size=N/A time=00:04:03.36 bitrate=N/A speed=15.7x    frame= 6059 fps=379 q=-0.0 size=N/A time=00:04:12.71 bitrate=N/A speed=15.8x    frame= 6307 fps=382 q=-0.0 size=N/A time=00:04:23.09 bitrate=N/A speed=15.9x    frame= 6543 fps=385 q=-0.0 size=N/A time=00:04:32.89 bitrate=N/A speed=16.1x    frame= 6796 fps=388 q=-0.0 size=N/A time=00:04:43.44 bitrate=N/A speed=16.2x    frame= 7049 fps=391 q=-0.0 size=N/A time=00:04:54.00 bitrate=N/A speed=16.3x    frame= 7299 fps=394 q=-0.0 size=N/A time=00:05:04.42 bitrate=N/A speed=16.4x    frame= 7580 fps=397 q=-0.0 size=N/A time=00:05:16.14 bitrate=N/A speed=16.6x    frame= 7846 fps=401 q=-0.0 size=N/A time=00:05:27.24 bitrate=N/A speed=16.7x    frame= 8118 fps=404 q=-0.0 size=N/A time=00:05:38.58 bitrate=N/A speed=16.8x    frame= 8365 fps=406 q=-0.0 size=N/A time=00:05:48.89 bitrate=N/A speed=16.9x    frame= 8633 fps=408 q=-0.0 size=N/A time=00:06:00.06 bitrate=N/A speed=  17x    frame= 8788 fps=406 q=-0.0 size=N/A time=00:06:06.53 bitrate=N/A speed=16.9x    frame= 9055 fps=409 q=-0.0 size=N/A time=00:06:17.66 bitrate=N/A speed=  17x    frame= 9306 fps=410 q=-0.0 size=N/A time=00:06:28.13 bitrate=N/A speed=17.1x    frame= 9570 fps=412 q=-0.0 size=N/A time=00:06:39.14 bitrate=N/A speed=17.2x    frame= 9801 fps=413 q=-0.0 size=N/A time=00:06:48.78 bitrate=N/A speed=17.2x    frame=10075 fps=416 q=-0.0 size=N/A time=00:07:00.21 bitrate=N/A speed=17.3x    frame=10335 fps=418 q=-0.0 size=N/A time=00:07:11.05 bitrate=N/A speed=17.4x    frame=10587 fps=419 q=-0.0 size=N/A time=00:07:21.56 bitrate=N/A speed=17.5x    frame=10802 fps=419 q=-0.0 size=N/A time=00:07:30.53 bitrate=N/A speed=17.5x    frame=10962 fps=417 q=-0.0 size=N/A time=00:07:37.20 bitrate=N/A speed=17.4x    frame=11228 fps=419 q=-0.0 size=N/A time=00:07:48.30 bitrate=N/A speed=17.5x    frame=11472 fps=420 q=-0.0 size=N/A time=00:07:58.47 bitrate=N/A speed=17.5x    frame=11697 fps=420 q=-0.0 size=N/A time=00:08:07.86 bitrate=N/A speed=17.5x    frame=11972 fps=422 q=-0.0 size=N/A time=00:08:19.33 bitrate=N/A speed=17.6x    frame=12238 fps=424 q=-0.0 size=N/A time=00:08:30.42 bitrate=N/A speed=17.7x    frame=12507 fps=425 q=-0.0 size=N/A time=00:08:41.64 bitrate=N/A speed=17.7x    frame=12754 fps=426 q=-0.0 size=N/A time=00:08:51.94 bitrate=N/A speed=17.8x    frame=12984 fps=427 q=-0.0 size=N/A time=00:09:01.54 bitrate=N/A speed=17.8x    frame=13237 fps=428 q=-0.0 size=N/A time=00:09:12.09 bitrate=N/A speed=17.8x    frame=13508 fps=429 q=-0.0 size=N/A time=00:09:23.39 bitrate=N/A speed=17.9x    frame=13776 fps=431 q=-0.0 size=N/A time=00:09:34.57 bitrate=N/A speed=  18x    frame=14004 fps=431 q=-0.0 size=N/A time=00:09:44.08 bitrate=N/A speed=  18x    frame=14279 fps=433 q=-0.0 size=N/A time=00:09:55.55 bitrate=N/A speed=  18x    frame=14523 fps=433 q=-0.0 size=N/A time=00:10:05.73 bitrate=N/A speed=18.1x    frame=14787 fps=434 q=-0.0 size=N/A time=00:10:16.74 bitrate=N/A speed=18.1x    frame=15061 fps=436 q=-0.0 size=N/A time=00:10:28.16 bitrate=N/A speed=18.2x    frame=15306 fps=436 q=-0.0 size=N/A time=00:10:38.38 bitrate=N/A speed=18.2x    frame=15523 fps=436 q=-0.0 size=N/A time=00:10:47.43 bitrate=N/A speed=18.2x    frame=15746 fps=436 q=-0.0 size=N/A time=00:10:56.73 bitrate=N/A speed=18.2x    frame=15986 fps=437 q=-0.0 size=N/A time=00:11:06.74 bitrate=N/A speed=18.2x    frame=16224 fps=437 q=-0.0 size=N/A time=00:11:16.67 bitrate=N/A speed=18.2x    frame=16501 fps=438 q=-0.0 size=N/A time=00:11:28.22 bitrate=N/A speed=18.3x    frame=16760 fps=439 q=-0.0 size=N/A time=00:11:39.03 bitrate=N/A speed=18.3x    frame=17024 fps=440 q=-0.0 size=N/A time=00:11:50.04 bitrate=N/A speed=18.4x    frame=17304 fps=441 q=-0.0 size=N/A time=00:12:01.72 bitrate=N/A speed=18.4x    frame=17577 fps=443 q=-0.0 size=N/A time=00:12:13.10 bitrate=N/A speed=18.5x    frame=17835 fps=443 q=-0.0 size=N/A time=00:12:23.86 bitrate=N/A speed=18.5x    frame=18101 fps=444 q=-0.0 size=N/A time=00:12:34.96 bitrate=N/A speed=18.5x    frame=18323 fps=444 q=-0.0 size=N/A time=00:12:44.22 bitrate=N/A speed=18.5x    frame=18555 fps=444 q=-0.0 size=N/A time=00:12:53.89 bitrate=N/A speed=18.5x    frame=18796 fps=444 q=-0.0 size=N/A time=00:13:03.94 bitrate=N/A speed=18.5x    frame=19069 fps=445 q=-0.0 size=N/A time=00:13:15.33 bitrate=N/A speed=18.6x    frame=19325 fps=446 q=-0.0 size=N/A time=00:13:26.01 bitrate=N/A speed=18.6x    frame=19602 fps=447 q=-0.0 size=N/A time=00:13:37.56 bitrate=N/A speed=18.6x    frame=19870 fps=448 q=-0.0 size=N/A time=00:13:48.74 bitrate=N/A speed=18.7x    frame=20134 fps=449 q=-0.0 size=N/A time=00:13:59.75 bitrate=N/A speed=18.7x    frame=20334 fps=448 q=-0.0 size=N/A time=00:14:08.09 bitrate=N/A speed=18.7x    frame=20596 fps=449 q=-0.0 size=N/A time=00:14:19.02 bitrate=N/A speed=18.7x    frame=20843 fps=449 q=-0.0 size=N/A time=00:14:29.32 bitrate=N/A speed=18.7x    frame=21098 fps=450 q=-0.0 size=N/A time=00:14:39.96 bitrate=N/A speed=18.7x    frame=21328 fps=450 q=-0.0 size=N/A time=00:14:49.55 bitrate=N/A speed=18.8x    frame=21532 fps=449 q=-0.0 size=N/A time=00:14:58.06 bitrate=N/A speed=18.7x    frame=21794 fps=450 q=-0.0 size=N/A time=00:15:08.99 bitrate=N/A speed=18.7x    frame=22051 fps=450 q=-0.0 size=N/A time=00:15:19.71 bitrate=N/A speed=18.8x    frame=22328 fps=451 q=-0.0 size=N/A time=00:15:31.26 bitrate=N/A speed=18.8x    frame=22595 fps=452 q=-0.0 size=N/A time=00:15:42.39 bitrate=N/A speed=18.8x    frame=22867 fps=452 q=-0.0 size=N/A time=00:15:53.74 bitrate=N/A speed=18.9x    frame=23157 fps=454 q=-0.0 size=N/A time=00:16:05.83 bitrate=N/A speed=18.9x    frame=23423 fps=454 q=-0.0 size=N/A time=00:16:16.93 bitrate=N/A speed=18.9x    frame=23678 fps=455 q=-0.0 size=N/A time=00:16:27.56 bitrate=N/A speed=  19x    frame=23966 fps=456 q=-0.0 size=N/A time=00:16:39.58 bitrate=N/A speed=  19x    frame=24251 fps=456 q=-0.0 size=N/A time=00:16:51.46 bitrate=N/A speed=  19x    frame=24530 fps=457 q=-0.0 size=N/A time=00:17:03.10 bitrate=N/A speed=19.1x    frame=24805 fps=458 q=-0.0 size=N/A time=00:17:14.57 bitrate=N/A speed=19.1x    frame=25047 fps=458 q=-0.0 size=N/A time=00:17:24.66 bitrate=N/A speed=19.1x    frame=25260 fps=458 q=-0.0 size=N/A time=00:17:33.55 bitrate=N/A speed=19.1x    frame=25529 fps=458 q=-0.0 size=N/A time=00:17:44.77 bitrate=N/A speed=19.1x    frame=25786 fps=459 q=-0.0 size=N/A time=00:17:55.49 bitrate=N/A speed=19.1x    frame=26060 fps=459 q=-0.0 size=N/A time=00:18:06.91 bitrate=N/A speed=19.2x    frame=26323 fps=460 q=-0.0 size=N/A time=00:18:17.88 bitrate=N/A speed=19.2x    frame=26556 fps=460 q=-0.0 size=N/A time=00:18:27.60 bitrate=N/A speed=19.2x    frame=26785 fps=460 q=-0.0 size=N/A time=00:18:37.15 bitrate=N/A speed=19.2x    frame=27012 fps=460 q=-0.0 size=N/A time=00:18:46.62 bitrate=N/A speed=19.2x    frame=27290 fps=460 q=-0.0 size=N/A time=00:18:58.22 bitrate=N/A speed=19.2x    frame=27522 fps=460 q=-0.0 size=N/A time=00:19:07.89 bitrate=N/A speed=19.2x    frame=27800 fps=461 q=-0.0 size=N/A time=00:19:19.49 bitrate=N/A speed=19.2x    frame=28069 fps=461 q=-0.0 size=N/A time=00:19:30.71 bitrate=N/A speed=19.2x    frame=28355 fps=462 q=-0.0 size=N/A time=00:19:42.63 bitrate=N/A speed=19.3x    frame=28628 fps=463 q=-0.0 size=N/A time=00:19:54.02 bitrate=N/A speed=19.3x    frame=28851 fps=462 q=-0.0 size=N/A time=00:20:03.32 bitrate=N/A speed=19.3x    frame=29101 fps=463 q=-0.0 size=N/A time=00:20:13.75 bitrate=N/A speed=19.3x    frame=29359 fps=463 q=-0.0 size=N/A time=00:20:24.51 bitrate=N/A speed=19.3x    frame=29636 fps=463 q=-0.0 size=N/A time=00:20:36.06 bitrate=N/A speed=19.3x    frame=29904 fps=464 q=-0.0 size=N/A time=00:20:47.24 bitrate=N/A speed=19.3x    frame=30149 fps=464 q=-0.0 size=N/A time=00:20:57.46 bitrate=N/A speed=19.4x    frame=30400 fps=464 q=-0.0 size=N/A time=00:21:07.93 bitrate=N/A speed=19.4x    frame=30679 fps=465 q=-0.0 size=N/A time=00:21:19.56 bitrate=N/A speed=19.4x    frame=30938 fps=465 q=-0.0 size=N/A time=00:21:30.37 bitrate=N/A speed=19.4x    frame=31181 fps=465 q=-0.0 size=N/A time=00:21:40.50 bitrate=N/A speed=19.4x    frame=31283 fps=463 q=-0.0 size=N/A time=00:21:44.76 bitrate=N/A speed=19.3x    frame=31375 fps=461 q=-0.0 size=N/A time=00:21:48.59 bitrate=N/A speed=19.2x    frame=31492 fps=459 q=-0.0 size=N/A time=00:21:53.47 bitrate=N/A speed=19.1x    frame=31643 fps=458 q=-0.0 size=N/A time=00:21:59.77 bitrate=N/A speed=19.1x    frame=31796 fps=457 q=-0.0 size=N/A time=00:22:06.15 bitrate=N/A speed=  19x    frame=31933 fps=455 q=-0.0 size=N/A time=00:22:11.87 bitrate=N/A speed=  19x    frame=32080 fps=454 q=-0.0 size=N/A time=00:22:18.00 bitrate=N/A speed=18.9x    frame=32177 fps=452 q=-0.0 size=N/A time=00:22:22.04 bitrate=N/A speed=18.9x    frame=32284 fps=450 q=-0.0 size=N/A time=00:22:26.51 bitrate=N/A speed=18.8x    frame=32431 fps=449 q=-0.0 size=N/A time=00:22:32.64 bitrate=N/A speed=18.7x    frame=32573 fps=448 q=-0.0 size=N/A time=00:22:38.56 bitrate=N/A speed=18.7x    frame=32733 fps=447 q=-0.0 size=N/A time=00:22:45.23 bitrate=N/A speed=18.6x    frame=32851 fps=445 q=-0.0 size=N/A time=00:22:50.16 bitrate=N/A speed=18.6x    frame=33002 fps=444 q=-0.0 size=N/A time=00:22:56.45 bitrate=N/A speed=18.5x    frame=33095 fps=443 q=-0.0 size=N/A time=00:23:00.33 bitrate=N/A speed=18.5x    frame=33202 fps=441 q=-0.0 size=N/A time=00:23:04.80 bitrate=N/A speed=18.4x    frame=33302 fps=439 q=-0.0 size=N/A time=00:23:08.97 bitrate=N/A speed=18.3x    frame=33518 fps=439 q=-0.0 size=N/A time=00:23:17.97 bitrate=N/A speed=18.3x    [Parsed_psnr_10 @ 00000236c6762f80] PSNR y:47.662999 u:51.569153 v:52.098326 average:48.662115 min:34.164771 max:inf
[out#0/null @ 00000236c0836040] video:14446KiB audio:262928KiB subtitle:0KiB other streams:0KiB global headers:0KiB muxing overhead: unknown
frame=33620 fps=439 q=-0.0 Lsize=N/A time=00:23:22.23 bitrate=N/A speed=18.3x    
